USFL
nRows=107
nColumns=2
inDegrees=yes
endheader
time	soleus_r	
2.79133	 55.097794	
2.8629	 55.311010	
2.93448	 55.065230	
3.00605	 55.201828	
3.07762	 55.262648	
3.14919	 55.517734	
3.22077	 55.458280	
3.29234	 55.432663	
3.36391	 55.318543	
3.43548	 55.089841	
3.50706	 55.139172	
3.57863	 55.097566	
3.6502	 55.065460	
3.72177	 55.146764	
3.79335	 55.016599	
3.86492	 55.233456	
3.93649	 55.144709	
4.00806	 55.116153	
4.07964	 55.111779	
4.15121	 55.200265	
4.22278	 55.190410	
4.29435	 55.306533	
4.36593	 55.151308	
4.4375	 55.173863	
4.50907	 55.064332	
4.58065	 55.057707	
4.65222	 55.254489	
4.72379	 55.329829	
4.79536	 55.212583	
4.86694	 55.285787	
4.93851	 55.314879	
5.01008	 55.711854	
5.08165	 55.185448	
5.15323	 55.909401	
5.2248	 55.851465	
5.29637	 44.153885	
5.36794	 39.703483	
5.43952	 39.619900	
5.51109	 39.887493	
5.58266	 39.411594	
5.65423	 39.386372	
5.72581	 40.068574	
5.79738	 37.954119	
5.86895	 37.729127	
5.94052	 33.271699	
6.0121	 33.076745	
6.08367	 33.152973	
6.15524	 32.681420	
6.22681	 32.339422	
6.29839	 32.554365	
6.36996	 32.572165	
6.44153	 32.292354	
6.5131	 32.509840	
6.58468	 31.945592	
6.65625	 31.924185	
6.72782	 32.109100	
6.7994	 31.939644	
6.87097	 31.740576	
6.94254	 31.756068	
7.01411	 31.596433	
7.08569	 31.553398	
7.15726	 31.628957	
7.22883	 31.645586	
7.3004	 31.641429	
7.37198	 31.730785	
7.44355	 31.416283	
7.51512	 31.431524	
7.58669	 31.563274	
7.65827	 31.576105	
7.72984	 31.413085	
7.80141	 31.401830	
7.87298	 31.366399	
7.94456	 31.385543	
8.01613	 31.496848	
8.0877	 31.448963	
8.15927	 31.349439	
8.23085	 31.286236	
8.30242	 31.166504	
8.37399	 30.981000	
8.44556	 31.021688	
8.51714	 31.089328	
8.58871	 30.967642	
8.66028	 30.943026	
8.73185	 31.027937	
8.80343	 31.038840	
8.875	 30.951956	
8.94657	 30.774512	
9.01815	 30.957763	
9.08972	 31.159838	
9.16129	 31.099473	
9.23286	 31.429113	
9.30444	 31.366941	
9.37601	 31.180865	
9.44758	 31.265938	
9.51915	 31.180301	
9.59073	 31.223117	
9.6623	 31.030926	
9.73387	 31.181698	
9.80544	 31.172436	
9.87702	 30.977680	
9.94859	 30.931399	
10.0202	 31.690742	
10.0917	 31.844180	
10.1633	 31.630386	
10.2349	 31.619893	
10.3065	 31.371493	
10.378	 31.343281	
